<svg xmlns="http://www.w3.org/2000/svg" viewBox="0 0 256 256">
  <defs>
    <radialGradient id="shine" cx="31%" cy="23%" r="82%"><stop offset="0" stop-color="#fff7c7" stop-opacity=".95"/><stop offset=".2" stop-color="#fff" stop-opacity=".08"/><stop offset="1" stop-color="#24070e" stop-opacity=".3"/></radialGradient>
    <linearGradient id="rim" x1="0" y1="0" x2="1" y2="1"><stop stop-color="#ff6543"/><stop offset=".48" stop-color="#ffd65d"/><stop offset="1" stop-color="#72e2f4"/></linearGradient>
    <filter id="shadow"><feDropShadow dx="0" dy="5" stdDeviation="10" flood-color="#ff603d" flood-opacity=".52"/></filter>
  </defs>
  <circle cx="128" cy="124" r="116" fill="#c63b35" stroke="url(#rim)" stroke-width="9" filter="url(#shadow)"/>
  <path d="M128 8a116 116 0 0 1 101 172L128 124z" fill="#3aaed7"/>
  <path d="M229 180A116 116 0 0 1 27 180l101-56z" fill="#9be9f2"/>
  <path d="M27 180A116 116 0 0 1 128 8v116z" fill="#e74a35"/>
  <circle cx="128" cy="124" r="116" fill="url(#shine)" stroke="url(#rim)" stroke-width="9"/>
  <ellipse cx="86" cy="70" rx="24" ry="17" fill="#fff" opacity=".5"/>
  <path d="m128 78 12 25 28 4-20 20 5 28-25-13-25 13 5-28-20-20 28-4z" fill="#fff1a1" fill-opacity=".74" stroke="#ffcf50" stroke-width="5" stroke-linejoin="round"/>
</svg>
